<svg xmlns="http://www.w3.org/2000/svg" viewBox="0 0 24 24">
  <g fill="none" fill-rule="evenodd">
    <rect width="20" height="12" x="2" y="6.5" stroke="#878C94" rx="1"/>
    <rect width="10" height="8" x="4" y="8.5" stroke="#878C94" rx="1"/>
    <path stroke="#878C94" stroke-linecap="square" d="M16,18.5 L16,6.5"/>
    <circle cx="19" cy="15.5" r="1" stroke="#878C94"/>
    <path stroke="#878C94" stroke-linecap="round" d="M4 18.5L4 19.5M20 18.5L20 19.5M18 8.5L20 8.5M18 10.5L20 10.5M18 12.5L20 12.5"/>
    <path stroke="#878C94" stroke-linecap="round" d="M6,12.5 L6.20943058,12.2905694 C6.52412807,11.9758719 7.03435349,11.9758719 7.34905097,12.2905694 C7.41029537,12.3518138 7.46126564,12.4225313 7.5,12.5 C7.69903216,12.8980643 8.1830745,13.0594118 8.58113883,12.8603796 C8.65860754,12.8216453 8.72932502,12.770675 8.79056942,12.7094306 L9,12.5" transform="matrix(0 1 1 0 -5 5)"/>
    <path stroke="#878C94" stroke-linecap="round" d="M8.5,12.5 L8.70943058,12.2905694 C9.02412807,11.9758719 9.53435349,11.9758719 9.84905097,12.2905694 C9.91029537,12.3518138 9.96126564,12.4225313 10,12.5 C10.1990322,12.8980643 10.6830745,13.0594118 11.0811388,12.8603796 C11.1586075,12.8216453 11.229325,12.770675 11.2905694,12.7094306 L11.5,12.5" transform="matrix(0 1 1 0 -2.5 2.5)"/>
  </g>
</svg>
