<svg xmlns="http://www.w3.org/2000/svg" width="22" height="20" viewBox="0 0 22 20">
    <path fill="#878C94" fill-rule="evenodd" d="M18.265 11.413c-.14-.84-.6-3.41-1.096-4.384-.331-.647-1.18-1.143-2.523-1.47-1.091-.267-2.486-.414-3.927-.414-1.442 0-2.837.146-3.928.414-1.343.328-2.192.823-2.523 1.47-.496.972-.955 3.543-1.096 4.384-.758.508-1.13 1.243-1.13 2.22v2.653c0 .692.453 1.282 1.084 1.5v1.153c0 .585.487 1.061 1.085 1.061h1.084c.598 0 1.085-.476 1.085-1.061v-1.061h8.677v1.06c0 .586.487 1.062 1.085 1.062h1.084c.598 0 1.085-.476 1.085-1.061v-1.152a1.596 1.596 0 0 0 1.085-1.5v-2.654c0-.977-.373-1.712-1.13-2.22zm-7.542-5.435c3.247 0 5.352.713 5.686 1.385.323.65.682 2.37.904 3.6a5.763 5.763 0 0 0-.34-.09c-.301-.071-1.075-.15-1.421-.197l-2.86-2.182c-.251-.182-.546-.118-.727.136-.182.253-.135.454.117.637l1.763 1.269c-.957-.032-2.006-.032-3.123-.032-.132 0-.595.014-.726.014L7.029 8.494c-.26-.173-.508-.125-.68.136-.172.26-.136.475.123.648l1.85 1.24c-1.51.027-2.822.11-3.849.355-.117.028-.23.059-.341.09.223-1.23.58-2.95.905-3.6.334-.671 2.44-1.385 5.686-1.385zM5.536 19.251H3.974v-1.373h1.562v1.373zm10.373 0v-1.373h1.562v1.373h-1.562zm2.642-2.776c0 .318-.25.577-.559.577H3.452a.569.569 0 0 1-.558-.577v-2.886c0-1.067.543-1.636 1.876-1.964 1.404-.345 3.512-.345 5.953-.345 2.44 0 4.547 0 5.952.345 1.333.328 1.876.897 1.876 1.964v2.886zM5.838 15.418c.707 0 1.282-.563 1.282-1.254 0-.691-.575-1.254-1.282-1.254-.707 0-1.282.563-1.282 1.254 0 .691.575 1.254 1.282 1.254zm0-1.672c.236 0 .427.187.427.418 0 .23-.191.418-.427.418a.423.423 0 0 1-.427-.418c0-.23.19-.418.427-.418zm9.761 1.672c.707 0 1.282-.563 1.282-1.254 0-.691-.575-1.254-1.282-1.254-.706 0-1.281.563-1.281 1.254 0 .691.575 1.254 1.281 1.254zm0-1.672c.236 0 .428.187.428.418 0 .23-.192.418-.428.418a.423.423 0 0 1-.427-.418c0-.23.191-.418.427-.418zm5.911-10.84c.364.093.571.419.46.724l-.024.065c-.111.305-.5.479-.864.385L11.015 1.285.918 4.08C.554 4.174.165 4 .054 3.695L.03 3.63c-.111-.305.096-.631.46-.725L11.014 0 21.51 2.905z"/>
</svg>
